<svg width="35" height="35" viewBox="0 0 35 35" fill="none" xmlns="http://www.w3.org/2000/svg">
<path d="M21.875 17.5C21.875 15.0792 19.9208 13.125 17.5 13.125C15.0792 13.125 13.125 15.0792 13.125 17.5C13.1241 18.2226 13.3025 18.9342 13.6442 19.571C13.9858 20.2077 14.4801 20.7498 15.0827 21.1487C15.6853 21.5475 16.3774 21.7907 17.0971 21.8563C17.8167 21.922 18.5414 21.8082 19.2063 21.525" stroke="#303030" stroke-width="1.5" stroke-miterlimit="10" stroke-linecap="round" stroke-linejoin="round"/>
<path d="M10.0334 30.0125L11.6229 30.9313C12.775 31.6167 14.2625 31.2083 14.9479 30.0563L15.1084 29.7792C16.4209 27.4896 18.5792 27.4896 19.9063 29.7792L20.0667 30.0563C20.7521 31.2083 22.2396 31.6167 23.3917 30.9313L25.9146 29.4875C27.2417 28.7292 27.6938 27.0229 26.9354 25.7104C25.6084 23.4208 26.6875 21.5542 29.3271 21.5542C30.8438 21.5542 32.0979 20.3146 32.0979 18.7833V16.2167C32.0979 14.7 30.8584 13.4458 29.3271 13.4458C27.8542 13.4458 26.8625 12.8625 26.5125 11.9438C26.2354 11.2292 26.3521 10.2958 26.9354 9.2896C27.6938 7.96251 27.2417 6.27085 25.9146 5.51251L24.7334 4.84168M19.8917 5.22231C18.5792 7.51189 16.4209 7.51189 15.0938 5.22231L14.9334 4.94522C14.7742 4.66965 14.5621 4.42828 14.3092 4.235C14.0564 4.04172 13.7679 3.90035 13.4602 3.81903C13.1525 3.7377 12.8318 3.71803 12.5165 3.76114C12.2012 3.80425 11.8975 3.90929 11.6229 4.07022L9.10002 5.51397C7.77294 6.2723 7.32085 7.97856 8.07919 9.30564C9.40627 11.5806 8.3271 13.4473 5.68752 13.4473C4.17085 13.4473 2.91669 14.6869 2.91669 16.2181V18.7848C2.91669 20.3015 4.15627 21.5556 5.68752 21.5556C8.3271 21.5556 9.40627 23.4223 8.07919 25.7119" stroke="#303030" stroke-width="1.5" stroke-miterlimit="10" stroke-linecap="round" stroke-linejoin="round"/>
</svg>
