<svg width="35" height="35" viewBox="0 0 35 35" fill="none" xmlns="http://www.w3.org/2000/svg">
<path d="M32.0834 18.9583V21.875C32.0834 29.1667 29.1667 32.0833 21.875 32.0833H13.125C5.83335 32.0833 2.91669 29.1667 2.91669 21.875V19.6583M16.0417 2.91667H13.125C5.83335 2.91667 2.91669 5.83334 2.91669 13.125" stroke="#303030" stroke-width="1.5" stroke-linecap="round" stroke-linejoin="round"/>
<path d="M29.0646 13.141L30.5958 11.6098C32.5792 9.62645 33.5125 7.32228 30.5958 4.40562C27.6792 1.48895 25.375 2.42229 23.3917 4.40562L11.9 15.8973C11.4625 16.3348 11.025 17.1952 10.9375 17.8223L10.3104 22.2119C10.0771 23.8015 11.2 24.9098 12.7896 24.691L17.1792 24.064C17.7917 23.9765 18.6521 23.539 19.1042 23.1015L23.7417 18.464L24.8063 17.3994" stroke="#303030" stroke-width="1.5" stroke-miterlimit="10" stroke-linecap="round" stroke-linejoin="round"/>
<path d="M21.7438 6.04916C22.2273 7.7663 23.1437 9.33051 24.4052 10.5919C25.6666 11.8534 27.2308 12.7698 28.9479 13.2533" stroke="#303030" stroke-width="1.5" stroke-miterlimit="10" stroke-linecap="round" stroke-linejoin="round"/>
</svg>
