<svg width="35" height="35" viewBox="0 0 35 35" fill="none" xmlns="http://www.w3.org/2000/svg">
<path d="M17.5 32.0833C25.5544 32.0833 32.0834 25.5544 32.0834 17.5C32.0834 9.44563 25.5544 2.91667 17.5 2.91667C9.44565 2.91667 2.91669 9.44563 2.91669 17.5C2.91669 25.5544 9.44565 32.0833 17.5 32.0833Z" stroke="#303030" stroke-width="1.5" stroke-linecap="round" stroke-linejoin="round"/>
<path d="M10.9958 17.5C10.9958 21.9333 11.7104 26.3667 13.125 30.625H11.6667M11.6638 4.375H13.1221C12.4075 6.50417 11.8825 8.67708 11.5179 10.8792M23.5229 23.8583C23.1583 26.1333 22.6188 28.4083 21.875 30.625M21.875 4.375C23.2896 8.63333 24.0042 13.0667 24.0042 17.5" stroke="#303030" stroke-width="1.5" stroke-linecap="round" stroke-linejoin="round"/>
<path d="M4.375 23.3333V21.875C12.894 24.7187 22.106 24.7187 30.625 21.875V23.3333M4.375 13.1279C12.894 10.2842 22.106 10.2842 30.625 13.1279" stroke="#303030" stroke-width="1.5" stroke-linecap="round" stroke-linejoin="round"/>
</svg>
