<svg width="24" height="24" viewBox="0 0 24 24" fill="none" xmlns="http://www.w3.org/2000/svg">
<path d="M12.332 12.84C11.372 14.57 9.58201 14.72 8.34201 13.17L8.12201 12.89C6.83201 11.27 5.01201 11.47 4.08201 13.32L2.36201 16.77C1.16201 19.17 2.91201 22 5.59201 22H18.352C20.942 22 22.692 19.35 21.672 16.96L18.542 9.65C17.482 7.17 15.532 7.07 14.222 9.43M9.96901 5C9.96901 6.66 8.62901 8 6.96901 8C5.30901 8 3.96901 6.66 3.96901 5C3.96901 3.34 5.30901 2 6.96901 2C7.32901 2 7.66901 2.06 7.97901 2.18" stroke="#303030" stroke-width="1.5" stroke-linecap="round" stroke-linejoin="round"/>
</svg>
