<svg width="24" height="24" viewBox="0 0 24 24" fill="none" xmlns="http://www.w3.org/2000/svg">
<path d="M13.63 5.86C13.63 4.44 14.68 3.28 16.21 3.28H19.42C20.84 3.28 22 4.44 22 5.86V11.66" stroke="#303030" stroke-width="1.5" stroke-linecap="round" stroke-linejoin="round"/>
<path d="M22 11.648H16.2C15.24 11.648 14.48 11.198 14.04 10.508M22 11.649C22 17.699 20.87 18.699 17.47 20.719M10.369 11.648H4.56901C3.03901 11.648 1.98901 10.488 1.98901 9.06801V5.84801C1.98901 4.42801 3.03901 3.26801 4.56901 3.26801H7.79901C9.21901 3.26801 10.379 4.42801 10.379 5.84801V11.648M10.367 11.649C10.367 17.699 9.23701 18.699 5.83701 20.719" stroke="#303030" stroke-width="1.5" stroke-linecap="round" stroke-linejoin="round"/>
</svg>
