<svg width="40" height="40" viewBox="0 0 40 40" fill="none" xmlns="http://www.w3.org/2000/svg">
<path d="M14.8667 9.74999C14.8667 7.48333 13.0334 5.64999 10.7667 5.64999C8.50002 5.64999 6.66669 7.48333 6.66669 9.74999C6.66669 12.0167 8.50002 13.85 10.7667 13.85M29.2334 34.3667C31.5 34.3667 33.3334 32.5333 33.3334 30.2667C33.3334 28 31.5 26.1667 29.2334 26.1667C26.9667 26.1667 25.1334 28 25.1334 30.2667M29.2334 13.85C30.3207 13.85 31.3636 13.418 32.1325 12.6491C32.9014 11.8802 33.3334 10.8374 33.3334 9.74999C33.3334 8.66261 32.9014 7.61976 32.1325 6.85086C31.3636 6.08196 30.3207 5.64999 29.2334 5.64999C28.146 5.64999 27.1031 6.08196 26.3342 6.85086C25.5653 7.61976 25.1334 8.66261 25.1334 9.74999C25.1334 10.8374 25.5653 11.8802 26.3342 12.6491C27.1031 13.418 28.146 13.85 29.2334 13.85V13.85ZM10.7667 34.3517C11.8541 34.3517 12.8969 33.9197 13.6658 33.1508C14.4347 32.3819 14.8667 31.339 14.8667 30.2517C14.8667 29.1643 14.4347 28.1214 13.6658 27.3525C12.8969 26.5836 11.8541 26.1517 10.7667 26.1517C9.6793 26.1517 8.63645 26.5836 7.86755 27.3525C7.09865 28.1214 6.66669 29.1643 6.66669 30.2517C6.66669 31.339 7.09865 32.3819 7.86755 33.1508C8.63645 33.9197 9.6793 34.3517 10.7667 34.3517V34.3517Z" stroke="#8E9540" stroke-width="1.5" stroke-miterlimit="10" stroke-linecap="round" stroke-linejoin="round"/>
</svg>
