<svg width="24" height="24" viewBox="0 0 24 24" fill="none" xmlns="http://www.w3.org/2000/svg">
<path d="M2 7.788C2 4.628 3.05 3.578 6.21 3.578H12.53C15.69 3.578 16.74 4.628 16.74 7.788V16.208C16.74 19.368 15.69 20.418 12.53 20.418H6.21C3.05 20.418 2 18.318 2 16.208V12.118" stroke="#303030" stroke-width="1.5" stroke-linecap="round" stroke-linejoin="round"/>
<path d="M13 9.50001C13 8.67001 12.33 8.00001 11.5 8.00001C10.67 8.00001 10 8.67001 10 9.50001C10 10.33 10.67 11 11.5 11M19.518 17.1L16.738 15.15V8.84001L19.518 6.89001C20.878 5.94001 21.998 6.52001 21.998 8.19001V15.81C21.998 17.48 20.878 18.06 19.518 17.1V17.1Z" stroke="#303030" stroke-width="1.5" stroke-linecap="round" stroke-linejoin="round"/>
</svg>
